<svg width="250" height="67" viewBox="0 0 250 67" fill="none" xmlns="http://www.w3.org/2000/svg">
<path d="M63.7784 37.4302H74.1628L68.8156 25.031L63.7784 37.4302ZM81.6799 41.8475C82.3773 43.4749 83.1523 44.7148 84.1597 45.7222C85.0897 46.7297 86.2521 47.1947 87.647 47.1947H88.112V48.1246H74.0078V47.1947H74.4728C75.2477 47.1947 75.9452 46.9622 76.4877 46.5747C77.0301 46.1097 77.3401 45.5673 77.3401 44.9473C77.3401 44.5598 77.2626 44.1723 77.1076 43.7074C76.9526 43.3199 76.7976 42.8549 76.4877 42.3899L74.8603 38.9027H63.236L61.6861 42.6224C61.5311 42.9324 61.4536 43.2424 61.3761 43.5524C61.2986 43.8624 61.2986 44.1723 61.2986 44.4823C61.2986 45.3348 61.5311 45.9547 62.0735 46.4972C62.616 47.0397 63.3135 47.2722 64.1659 47.2722H64.6309V48.2021H53.9365V47.2722H54.4015C55.5639 47.2722 56.6489 46.7297 57.7338 45.7222C58.8187 44.7148 59.7487 43.3199 60.4461 41.615L70.5205 17.1265H70.9855L81.6799 41.8475Z" fill="#373B37"/>
<path d="M96.7915 27.8209C98.0314 27.0459 99.3488 26.6584 100.899 26.6584C102.681 26.6584 104.076 27.0459 105.006 27.8984C105.936 28.7508 106.478 29.9908 106.633 31.5407C107.718 29.9133 108.881 28.6733 110.043 27.8984C111.283 27.0459 112.678 26.6584 114.305 26.6584C116.165 26.6584 117.638 27.2009 118.568 28.2084C119.575 29.2158 120.04 30.6882 120.04 32.5481V44.0174C120.04 45.2573 120.195 46.1098 120.583 46.5748C120.97 47.0397 121.59 47.2722 122.597 47.2722H123.605V48.2022H112.291V47.2722H113.298C114.228 47.2722 114.925 47.0397 115.313 46.5748C115.7 46.1098 115.855 45.2573 115.855 44.0174V33.943C115.855 32.4706 115.468 31.3857 114.77 30.6882C114.073 29.9908 113.143 29.6033 111.981 29.6033C111.593 29.6033 111.128 29.6808 110.586 29.8358C110.121 29.9907 109.578 30.2232 109.113 30.5332C108.648 30.8432 108.183 31.2307 107.718 31.6182C107.253 32.0056 106.866 32.5481 106.556 33.0131V44.0174C106.556 45.2573 106.711 46.1098 107.098 46.5748C107.486 47.0397 108.106 47.2722 109.113 47.2722H110.121V48.2022H98.8063V47.2722H99.8138C100.744 47.2722 101.441 47.0397 101.829 46.5748C102.216 46.1098 102.371 45.2573 102.371 44.0174V33.943C102.371 32.4706 101.984 31.3857 101.286 30.6882C100.589 29.9908 99.6588 29.6033 98.4964 29.6033C98.1089 29.6033 97.6439 29.6808 97.1014 29.8358C96.6365 29.9907 96.094 30.2232 95.629 30.5332C95.1641 30.8432 94.6991 31.2307 94.2341 31.6182C93.7691 32.0056 93.3817 32.5481 93.0717 33.0131V44.0174C93.0717 45.2573 93.3042 46.1098 93.6916 46.5748C94.0791 47.0397 94.7766 47.2722 95.784 47.2722H96.7915V48.2022H85.7871V47.2722H86.2521C87.182 47.2722 87.8795 47.0397 88.3445 46.5748C88.7319 46.1098 88.9644 45.2573 88.9644 44.0174V31.4632C88.9644 30.2232 88.7319 29.3708 88.3445 28.9058C87.957 28.4408 87.2595 28.2084 86.2521 28.2084H85.7871V27.2784L93.1492 26.6584V31.4632C94.3891 29.8358 95.5515 28.6733 96.7915 27.8209Z" fill="#373B37"/>
<path d="M137.399 34.408C137.399 33.5555 137.321 32.7031 137.089 31.9281C136.856 31.1532 136.546 30.4557 136.159 29.8358C135.771 29.2158 135.229 28.7508 134.609 28.4408C133.989 28.1309 133.291 27.8984 132.516 27.8984C131.897 27.8984 131.354 28.0534 130.734 28.3633C130.192 28.6733 129.649 29.0608 129.184 29.6808C128.719 30.2232 128.332 30.9207 128.022 31.6956C127.712 32.4706 127.557 33.4005 127.479 34.408H137.399V34.408ZM132.516 26.6584C133.756 26.6584 134.919 26.8909 136.004 27.2784C137.089 27.7434 138.096 28.2858 138.871 29.0608C139.724 29.8358 140.344 30.7657 140.808 31.9281C141.273 33.0131 141.583 34.253 141.583 35.6479H127.402V36.3454C127.402 37.7403 127.557 38.9802 127.867 40.1426C128.177 41.3051 128.642 42.235 129.262 43.0875C129.882 43.9399 130.579 44.5599 131.432 45.0249C132.284 45.4898 133.291 45.7223 134.376 45.7223C135.926 45.7223 137.166 45.2573 138.251 44.3274C139.336 43.3974 140.111 42.08 140.576 40.4526L141.273 40.6076C141.118 41.77 140.731 42.855 140.266 43.7849C139.801 44.7149 139.181 45.5673 138.406 46.1873C137.631 46.8847 136.779 47.3497 135.771 47.7372C134.764 48.1247 133.756 48.2797 132.594 48.2797C131.044 48.2797 129.649 48.0472 128.409 47.5047C127.169 46.9622 126.084 46.2648 125.154 45.3348C124.224 44.4049 123.527 43.3199 123.062 42.0025C122.597 40.6851 122.287 39.2902 122.287 37.7403C122.287 36.1129 122.597 34.563 123.14 33.1681C123.682 31.7731 124.457 30.6107 125.387 29.6033C126.317 28.5958 127.402 27.8209 128.642 27.2784C129.882 26.9684 131.199 26.6584 132.516 26.6584Z" fill="#373B37"/>
<path d="M154.138 26.6584C155.223 26.6584 156.153 26.8909 156.773 27.4334C157.393 27.9758 157.78 28.7508 157.78 29.7582C157.78 30.6107 157.471 31.2306 156.928 31.6956C156.386 32.1606 155.766 32.3931 154.991 32.3931C154.448 32.3931 154.061 32.3156 153.751 32.0831C153.441 31.8506 153.131 31.5406 152.898 31.2306C152.588 30.6882 152.356 30.2232 152.123 29.8357C151.891 29.4482 151.503 29.2932 150.883 29.2932C150.728 29.2932 150.496 29.3707 150.263 29.4482C150.031 29.5257 149.798 29.7582 149.643 29.9907C149.411 30.3007 149.256 30.6107 149.101 31.1531C148.946 31.6181 148.869 32.2381 148.869 33.013V43.8624C148.869 45.1023 149.101 45.9548 149.488 46.4197C149.876 46.8847 150.573 47.1172 151.581 47.1172H153.131V48.0471H140.499V47.1172H142.049C142.979 47.1172 143.676 46.8847 144.141 46.4197C144.529 45.9548 144.761 45.1023 144.761 43.8624V31.3081C144.761 30.0682 144.529 29.2158 144.141 28.7508C143.754 28.2858 142.514 28.0533 141.506 28.0533H141.042V27.1234L148.946 26.5034V29.4482C149.411 28.5958 150.186 27.8983 151.116 27.3559C152.123 26.9684 153.053 26.6584 154.138 26.6584Z" fill="#373B37"/>
<path d="M160.803 21.0788C160.803 20.3038 161.113 19.6063 161.655 19.0639C162.198 18.5214 162.895 18.2114 163.748 18.2114C164.523 18.2114 165.22 18.5214 165.84 19.0639C166.383 19.6063 166.693 20.3038 166.693 21.0788C166.693 21.8537 166.383 22.5512 165.84 23.0936C165.298 23.6361 164.6 23.9461 163.748 23.9461C162.973 23.9461 162.275 23.6361 161.655 23.0936C161.113 22.4737 160.803 21.8537 160.803 21.0788ZM165.84 44.0174C165.84 45.2573 166.073 46.1098 166.46 46.5747C166.848 47.0397 168.01 47.2722 168.94 47.2722H170.49V48.2021H157.936V47.2722H158.943C159.873 47.2722 160.57 47.0397 161.035 46.5747C161.423 46.1098 161.655 45.2573 161.655 44.0174V31.3856C161.655 30.1457 161.423 29.2933 160.88 28.9058C160.338 28.5183 159.718 28.2858 158.943 28.2858H158.478V27.3559L165.84 26.7359V44.0174Z" fill="#373B37"/>
<path d="M185.911 41.5375C185.911 40.53 185.679 39.6776 185.291 38.9801C184.826 38.2827 184.284 37.5852 183.509 36.9653C182.734 36.3453 181.882 35.8803 180.874 35.3379C179.867 34.8729 178.782 34.4079 177.619 33.9429C175.217 32.9355 173.357 31.7731 172.117 30.3007C170.877 28.8282 170.257 27.0459 170.257 24.9535C170.257 23.7136 170.49 22.6286 171.032 21.6212C171.575 20.6137 172.272 19.8388 173.125 19.1413C173.977 18.4439 174.984 17.9014 176.069 17.5914C177.154 17.2039 178.394 17.049 179.557 17.049C180.797 17.049 181.882 17.2039 182.811 17.5139C183.741 17.8239 185.214 18.2114 186.221 18.7539C186.609 18.9863 186.919 19.0638 187.229 19.0638C187.461 19.0638 187.616 18.9863 187.771 18.8313C187.926 18.6764 188.004 18.3664 188.004 17.9789V17.6689H189.089V26.1934H188.004C187.694 23.791 186.221 21.8537 184.826 20.5362C183.431 19.2188 181.649 18.5214 179.634 18.5214C178.084 18.5214 176.767 18.9088 175.837 19.7613C174.907 20.6137 174.442 21.6987 174.442 23.0936C174.442 23.946 174.674 24.721 175.062 25.4185C175.449 26.1159 176.069 26.7359 176.767 27.3558C177.464 27.9758 178.394 28.5183 179.402 28.9832C180.409 29.5257 181.494 29.9907 182.656 30.4556C185.291 31.5406 187.229 32.703 188.469 34.0204C189.709 35.3379 190.329 37.0428 190.329 39.0576C190.329 40.53 190.019 41.8475 189.399 43.0099C188.779 44.1723 188.004 45.1798 187.074 45.9547C186.144 46.7297 185.059 47.3496 183.896 47.7371C182.734 48.1246 181.572 48.3571 180.409 48.3571C178.937 48.3571 177.619 48.1246 176.534 47.6596C175.449 47.1946 174.364 46.6522 173.28 45.9547C173.125 45.8772 172.892 45.7222 172.737 45.7222C172.582 45.6447 172.35 45.6447 172.117 45.6447C171.807 45.6447 171.497 45.7997 171.265 46.1097C171.032 46.4197 170.955 47.3496 170.955 48.1246H169.947V37.5077H171.032C171.265 38.7477 171.652 39.9876 172.195 41.15C172.737 42.3124 173.435 43.3199 174.287 44.1723C175.062 45.0248 175.992 45.7222 176.999 46.1872C178.007 46.6522 179.092 46.9622 180.177 46.9622C181.882 46.9622 183.276 46.4972 184.361 45.4897C185.369 44.4823 185.911 43.1649 185.911 41.5375Z" fill="#373B37"/>
<path d="M204.2 35.9579L200.946 37.1203C197.536 38.3602 195.831 40.0651 195.831 42.3125C195.831 43.2424 196.141 44.0949 196.683 44.7923C197.303 45.4898 198.156 45.8773 199.473 45.8773C200.326 45.8773 201.023 45.7223 201.643 45.4898C202.263 45.2573 202.805 44.9473 203.27 44.4824L204.2 43.6299V35.9579V35.9579ZM212.105 43.7074C211.95 45.2573 211.562 46.4197 210.787 47.1947C210.013 47.9697 209.083 48.3571 207.998 48.3571C207.068 48.3571 206.215 48.0471 205.595 47.5047C204.975 46.9622 204.51 46.1098 204.278 44.9473L203.503 45.7223C202.883 46.2648 202.34 46.7297 201.798 47.1172C201.256 47.4272 200.791 47.7372 200.326 47.8922C199.861 48.0471 199.396 48.2021 198.931 48.2796C198.466 48.3571 198.001 48.3571 197.536 48.3571C196.761 48.3571 195.986 48.2021 195.288 47.9697C194.591 47.7372 193.971 47.3497 193.429 46.8847C192.886 46.4197 192.499 45.8773 192.189 45.1798C191.879 44.4824 191.724 43.7849 191.724 42.855C191.724 41.2276 192.344 39.9101 193.506 38.8252C194.668 37.7403 196.373 36.8878 198.543 36.3453L204.355 34.8729V31.9281C204.355 30.5332 203.968 29.5258 203.27 28.8283C202.573 28.1308 201.643 27.8209 200.481 27.8209C199.396 27.8209 198.466 28.0533 197.768 28.5958C197.071 29.0608 196.218 29.6807 196.218 30.3782C196.218 30.6882 196.296 30.9207 196.373 31.1532C196.528 31.3856 196.528 31.6956 196.528 32.0831C196.528 32.7031 196.373 33.168 195.986 33.633C195.598 34.0205 195.056 34.253 194.358 34.253C193.739 34.253 193.274 34.098 192.886 33.7105C192.499 33.323 192.266 32.8581 192.266 32.2381C192.266 32.0056 192.266 31.7731 192.344 31.4631C192.421 31.1532 192.499 30.9207 192.576 30.6882C193.196 29.5258 194.203 28.5183 195.598 27.7434C196.993 26.9684 199.163 26.5809 200.868 26.5809C201.953 26.5809 202.96 26.6584 203.813 26.8909C204.743 27.1234 205.518 27.4334 206.215 27.8984C206.913 28.3633 207.378 28.9833 207.765 29.8357C208.153 30.6107 208.308 31.6181 208.308 32.7806V43.3974C208.308 43.9399 208.463 44.4049 208.695 44.7148C208.928 45.0248 209.315 45.1798 209.703 45.1798C210.09 45.1798 210.478 45.0248 210.787 44.7923C211.097 44.5599 211.33 44.0949 211.485 43.4749L212.105 43.7074Z" fill="#373B37"/>
<path d="M212.725 31.8505C212.105 30.6881 211.562 29.8357 211.02 29.1382C210.478 28.5182 209.858 28.2083 209.083 28.2083H208.075V27.2783H220.397V28.2083H219.544C218.77 28.2083 218.15 28.3633 217.762 28.6732C217.375 28.9832 217.142 29.4482 217.142 30.0682C217.142 30.5331 217.297 31.0756 217.607 31.6956L222.644 41.6925L226.984 31.6181C227.139 31.2306 227.294 30.8431 227.372 30.5331C227.449 30.2231 227.527 29.9132 227.527 29.6807C227.527 28.7507 226.907 28.2083 225.589 28.2083H225.124V27.2783H233.881V28.2083H232.874C231.014 28.2083 229.541 29.4482 228.534 31.928L221.559 48.2021H220.939L212.725 31.8505Z" fill="#373B37"/>
<path d="M245.66 34.408C245.66 33.5555 245.583 32.7031 245.35 31.9281C245.118 31.1532 244.808 30.4557 244.42 29.8358C244.033 29.2158 243.491 28.7508 242.871 28.4408C242.251 28.1309 241.553 27.8984 240.778 27.8984C240.158 27.8984 239.616 28.0534 238.996 28.3633C238.453 28.6733 237.911 29.0608 237.446 29.6808C236.981 30.2232 236.593 30.9207 236.283 31.6956C235.973 32.4706 235.818 33.4005 235.741 34.408H245.66V34.408ZM240.778 26.6584C242.018 26.6584 243.181 26.8909 244.265 27.2784C245.35 27.7434 246.358 28.2858 247.133 29.0608C247.985 29.8358 248.605 30.7657 249.07 31.9281C249.535 33.0131 249.845 34.253 249.845 35.6479H235.664V36.3454C235.664 37.7403 235.818 38.9802 236.128 40.1426C236.438 41.3051 236.903 42.235 237.523 43.0875C238.143 43.9399 238.841 44.5599 239.693 45.0249C240.546 45.4898 241.553 45.7223 242.638 45.7223C244.188 45.7223 245.428 45.2573 246.513 44.3274C247.598 43.3974 248.373 42.08 248.838 40.4526L249.535 40.6076C249.38 41.77 248.993 42.855 248.528 43.7849C248.063 44.7149 247.443 45.5673 246.668 46.1873C245.893 46.8847 245.04 47.3497 244.033 47.7372C243.026 48.1247 242.018 48.2797 240.856 48.2797C239.306 48.2797 237.911 48.0472 236.671 47.5047C235.431 46.9622 234.346 46.2648 233.416 45.3348C232.486 44.4049 231.789 43.3199 231.324 42.0025C230.859 40.6851 230.549 39.2902 230.549 37.7403C230.549 36.1129 230.859 34.563 231.401 33.1681C231.944 31.7731 232.719 30.6107 233.649 29.6033C234.579 28.5958 235.664 27.8209 236.903 27.2784C238.143 26.9684 239.461 26.6584 240.778 26.6584Z" fill="#373B37"/>
<path d="M46.1097 10.6169V48.2021L0 10.6169L23.0936 0L46.1097 10.6169Z" fill="#069590"/>
<path d="M23.0936 0L0 44.9473V10.6169L23.0936 0Z" fill="#00698F"/>
<path d="M46.1094 10.6168V48.2021L3.56445 48.1246L46.1094 10.6168Z" fill="#3BD4AE"/>
<path d="M126.86 55.9517V66.1811H124.922V60.8339L125 57.8116L122.132 66.1036H120.35L117.56 57.8116L117.638 60.8339V66.1811H115.7V55.9517H118.8L120.66 61.5313L121.28 63.8562L121.977 61.5313L123.837 55.9517H126.86Z" fill="#373B37"/>
<path d="M140.964 55.7966C141.971 55.7966 142.823 56.0291 143.598 56.4166C144.296 56.8041 144.916 57.424 145.303 58.199C145.691 58.9739 145.923 59.9039 145.923 60.9888C145.923 62.0738 145.691 63.0037 145.303 63.7787C144.916 64.5536 144.373 65.1736 143.598 65.5611C142.901 65.9485 141.971 66.181 140.964 66.181C139.956 66.181 139.104 65.9485 138.329 65.5611C137.554 65.1736 137.011 64.5536 136.624 63.7787C136.236 63.0037 136.004 62.0738 136.004 60.9888C136.004 59.9039 136.236 58.9739 136.624 58.199C137.011 57.424 137.554 56.8041 138.329 56.4166C139.026 55.9516 139.956 55.7966 140.964 55.7966ZM140.964 57.5015C140.421 57.5015 139.879 57.6565 139.491 57.889C139.104 58.1215 138.794 58.5865 138.561 59.0514C138.329 59.5939 138.251 60.2139 138.251 60.9888C138.251 61.7638 138.329 62.3837 138.561 62.9262C138.794 63.4687 139.104 63.8561 139.491 64.0886C139.879 64.3211 140.421 64.4761 140.964 64.4761C141.506 64.4761 142.049 64.3211 142.436 64.0886C142.823 63.8561 143.133 63.3912 143.366 62.9262C143.598 62.3837 143.676 61.7638 143.676 60.9888C143.676 60.2139 143.598 59.5939 143.366 59.0514C143.133 58.509 142.823 58.1215 142.436 57.889C141.971 57.6565 141.506 57.5015 140.964 57.5015Z" fill="#373B37"/>
<path d="M159.485 55.9517C160.647 55.9517 161.577 56.2616 162.197 56.8041C162.895 57.3466 163.205 58.1215 163.205 59.0515C163.205 60.0589 162.895 60.8339 162.197 61.3763C161.5 61.9188 160.647 62.1513 159.485 62.1513L159.252 62.3063H157.083V66.2585H154.99V56.0292H159.485V55.9517ZM159.252 60.6014C159.872 60.6014 160.337 60.4464 160.57 60.2139C160.802 59.9814 161.035 59.5939 161.035 59.0515C161.035 58.509 160.88 58.199 160.57 57.9665C160.26 57.7341 159.795 57.5791 159.252 57.5791H157.083V60.5239H159.252V60.6014ZM160.492 61.0664L163.825 66.1811H161.422L158.71 61.6863L160.492 61.0664Z" fill="#373B37"/>
<path d="M180.409 55.9517V57.6566H177V66.1811H174.83V57.6566H171.42V55.9517H180.409Z" fill="#373B37"/>
<path d="M192.964 66.336C192.034 66.336 191.181 66.1035 190.484 65.716C189.786 65.3286 189.244 64.7086 188.856 63.9336C188.469 63.1587 188.236 62.2287 188.236 61.0663C188.236 59.9814 188.469 59.0514 188.856 58.2765C189.244 57.5015 189.864 56.8816 190.639 56.4166C191.414 56.0291 192.266 55.7966 193.274 55.7966C194.358 55.7966 195.288 56.0291 195.986 56.4166C196.683 56.8041 197.226 57.424 197.613 58.2765L195.598 59.1289C195.443 58.5865 195.133 58.199 194.746 57.889C194.358 57.6565 193.893 57.5015 193.274 57.5015C192.731 57.5015 192.189 57.6565 191.801 57.889C191.414 58.199 191.026 58.5865 190.794 59.0514C190.561 59.5939 190.484 60.2139 190.484 60.9888C190.484 61.7638 190.561 62.3837 190.794 62.9262C191.026 63.4687 191.336 63.8561 191.724 64.0886C192.189 64.3211 192.654 64.4761 193.274 64.4761C193.584 64.4761 193.971 64.3986 194.203 64.3211C194.513 64.2436 194.746 64.0886 194.978 63.9336C195.211 63.7787 195.366 63.5462 195.521 63.3137C195.676 63.0812 195.676 62.7712 195.676 62.3837V62.1512H192.964V60.6013H197.458V66.026H195.986L195.831 63.7787L196.218 64.0111C195.986 64.7086 195.598 65.2511 194.978 65.561C194.513 66.1035 193.816 66.336 192.964 66.336Z" fill="#373B37"/>
<path d="M215.824 66.1811H213.577L212.725 63.7012H208.772L207.92 66.1811H205.75L209.47 55.9517H212.027L215.824 66.1811ZM209.315 62.0738H212.26L210.787 57.5791L209.315 62.0738Z" fill="#373B37"/>
<path d="M228.146 66.336C227.216 66.336 226.364 66.1035 225.666 65.716C224.969 65.3286 224.426 64.7086 224.039 63.9336C223.651 63.1587 223.419 62.2287 223.419 61.0663C223.419 59.9814 223.651 59.0514 224.039 58.2765C224.426 57.5015 225.046 56.8816 225.821 56.4166C226.596 56.0291 227.449 55.7966 228.456 55.7966C229.541 55.7966 230.471 56.0291 231.168 56.4166C231.866 56.8041 232.408 57.424 232.796 58.2765L230.781 59.1289C230.626 58.5865 230.316 58.199 229.929 57.889C229.541 57.6565 229.076 57.5015 228.456 57.5015C227.914 57.5015 227.371 57.6565 226.984 57.889C226.596 58.199 226.209 58.5865 225.976 59.0514C225.744 59.5939 225.666 60.2139 225.666 60.9888C225.666 61.7638 225.744 62.3837 225.976 62.9262C226.209 63.4687 226.519 63.8561 226.906 64.0886C227.371 64.3211 227.836 64.4761 228.456 64.4761C228.766 64.4761 229.154 64.3986 229.386 64.3211C229.696 64.2436 229.929 64.0886 230.161 63.9336C230.394 63.7787 230.549 63.5462 230.704 63.3137C230.858 63.0812 230.859 62.7712 230.859 62.3837V62.1512H228.146V60.6013H232.641V66.026H231.168L231.013 63.7787L231.401 64.0111C231.168 64.7086 230.781 65.2511 230.161 65.561C229.696 66.1035 228.999 66.336 228.146 66.336Z" fill="#373B37"/>
<path d="M242.095 66.1811V55.9517H249.767V57.6566H244.265V60.2139H248.604V61.8413H244.265V64.4761H249.999V66.1811H242.095Z" fill="#373B37"/>
</svg>
